<mxfile host="app.diagrams.net" modified="2024-01-18T04:12:03.458Z" agent="Mozilla/5.0 (Windows NT 10.0; Win64; x64) AppleWebKit/537.36 (KHTML, like Gecko) Chrome/120.0.0.0 Safari/537.36 Edg/120.0.0.0" version="22.1.18" etag="3bmGT8dJDn4_0QwP8Qfs" type="github">
  <diagram name="Page-1" id="brc4qipMDi9fvwtE8NXh">
    <mxGraphModel>
      <root>
        <mxCell id="0" />
        <mxCell id="1" parent="0" />
      </root>
    </mxGraphModel>
  </diagram>
</mxfile>
